# xmcd
# 
# Track frame offsets:
#     150
#     8737
#     33336
#     51989
#     65763
#     93286
#     127818
#     145871
#     157177
#     175037
#     188890
#     221222
# 
# Disc length: 3208
# 
# Revision: 0
# Processed by: cddbd v1.5.2PL0 Copyright (c) Steve Scherf et al.
# Submitted via: fre:ac v1.1beta1pre4
# 
DISCID=a80c860c
DTITLE=Les Murènes - Jolly Rouge
DYEAR=2016
DGENRE=Folk
TTITLE0=La dernière bataille
TTITLE1=Les voiles
TTITLE2=Les femmes à gros devant
TTITLE3=Belle Virginie
TTITLE4=Monstres et mégères
TTITLE5=Grand Chien
TTITLE6=Belle endormie
TTITLE7=Guerre guerre vente vent
TTITLE8=La peur
TTITLE9=Je me suis engagé
TTITLE10=Jolly Rouge
TTITLE11=L'auberge du Rat-qui-pète
EXTD=
EXTT0=
EXTT1=
EXTT2=
EXTT3=
EXTT4=
EXTT5=
EXTT6=
EXTT7=
EXTT8=
EXTT9=
EXTT10=
EXTT11=
PLAYORDER=
